<svg width="20" height="20" viewBox="0 0 20 20" fill="none" xmlns="http://www.w3.org/2000/svg">
<g clip-path="url(#clip0_2492_207)">
<path d="M9.16663 3.33344H3.33329C2.89127 3.33344 2.46734 3.50904 2.15478 3.8216C1.84222 4.13416 1.66663 4.55808 1.66663 5.00011V16.6668C1.66663 17.1088 1.84222 17.5327 2.15478 17.8453C2.46734 18.1578 2.89127 18.3334 3.33329 18.3334H15C15.442 18.3334 15.8659 18.1578 16.1785 17.8453C16.491 17.5327 16.6666 17.1088 16.6666 16.6668V10.8334M15.4166 2.08344C15.7481 1.75192 16.1978 1.56567 16.6666 1.56567C17.1355 1.56567 17.5851 1.75192 17.9166 2.08344C18.2481 2.41496 18.4344 2.8646 18.4344 3.33344C18.4344 3.80228 18.2481 4.25192 17.9166 4.58344L9.99996 12.5001L6.66663 13.3334L7.49996 10.0001L15.4166 2.08344Z" stroke="#6A4A3F" stroke-width="2" stroke-linecap="round" stroke-linejoin="round"/>
</g>
<defs>
<clipPath id="clip0_2492_207">
<rect width="20" height="20" fill="white"/>
</clipPath>
</defs>
</svg>
