<svg width="1717" height="1155" viewBox="0 0 1717 1155" fill="none" xmlns="http://www.w3.org/2000/svg">
<g clip-path="url(#clip0_2789_88)">
<path d="M-192.104 829.174C-177.563 585.146 6.41319 302.686 235.313 432.898C320.422 481.313 360.695 540.049 383.798 632.64C410.362 739.102 291.902 797.192 365.308 908.24C440.527 1022.03 536.513 892.83 650.499 966.067C781.229 1050.06 833.63 1159.96 808.566 1235.28C770.776 1348.85 588.648 1435.39 381.264 1447.6C84.7821 1465.06 -209.979 1129.16 -192.104 829.174Z" fill="#F8C9D2"/>
<path d="M1200.46 -67.9136C1328.25 -130.927 1389.33 -248.659 1533.2 -220.809C1657.62 -196.724 1701.23 -114.507 1754.65 -15.4272C1827.33 119.376 1789 219.182 1754.65 364.692C1716.5 526.297 1770.55 780.273 1577.8 780.997C1448.47 781.483 1367.37 714.949 1309.47 616.04C1250.29 514.95 1348.24 389.906 1290.03 288.407C1208.02 145.41 840.674 271.133 859.714 112.692C875.721 -20.5053 1064.84 -1.03848 1200.46 -67.9136Z" fill="#DACFF3"/>
</g>
<defs>
<clipPath id="clip0_2789_88">
<rect width="1717" height="1155" fill="white"/>
</clipPath>
</defs>
</svg>
